<svg xmlns="http://www.w3.org/2000/svg" viewBox="0 0 30 30" width="20px" height="20px"><path fill="#7accff" d="M21.007,27.94c-1.148,0-2.282-0.28-3.278-0.811l-0.154-0.082l-0.171,0.031 c-0.739,0.135-1.5,0.204-2.26,0.204c-6.793,0-12.32-5.447-12.32-12.143c0-0.818,0.084-1.639,0.249-2.439l0.04-0.19l-0.1-0.167 C2.389,11.299,2.06,10.105,2.06,8.889c0-3.766,3.111-6.829,6.936-6.829c1.311,0,2.587,0.363,3.69,1.049l0.16,0.1l0.188-0.031 C13.73,3.06,14.44,3,15.144,3c6.794,0,12.321,5.446,12.321,12.141c0,0.883-0.096,1.76-0.286,2.605l-0.039,0.175l0.081,0.16 c0.478,0.941,0.72,1.961,0.72,3.03C27.94,24.876,24.83,27.94,21.007,27.94z"/><path fill="#788b9c" d="M8.995,2.56c1.217,0,2.401,0.337,3.426,0.974l0.322,0.2l0.373-0.063 C13.786,3.557,14.468,3.5,15.143,3.5c6.519,0,11.822,5.222,11.822,11.64c0,0.846-0.092,1.686-0.274,2.496l-0.079,0.351 l0.163,0.321c0.441,0.87,0.665,1.814,0.665,2.804c0,3.49-2.886,6.329-6.433,6.329c-1.066,0-2.118-0.26-3.044-0.753l-0.307-0.163 l-0.342,0.062c-0.71,0.13-1.441,0.195-2.17,0.195c-6.518,0-11.82-5.223-11.82-11.643c0-0.782,0.08-1.569,0.239-2.338l0.079-0.381 l-0.2-0.334C2.865,11.121,2.56,10.016,2.56,8.889C2.56,5.399,5.447,2.56,8.995,2.56 M8.995,1.56C4.89,1.56,1.56,4.843,1.56,8.889 c0,1.355,0.372,2.621,1.023,3.71c-0.17,0.822-0.26,1.671-0.26,2.54c0,6.984,5.739,12.643,12.82,12.643 c0.802,0,1.586-0.072,2.35-0.212c1.043,0.555,2.243,0.87,3.513,0.87c4.106,0,7.433-3.28,7.433-7.329 c0-1.17-0.276-2.275-0.773-3.256c0.197-0.875,0.298-1.784,0.298-2.715c0-6.98-5.741-12.64-12.822-12.64 c-0.747,0-1.48,0.064-2.194,0.185C11.805,1.973,10.451,1.56,8.995,1.56L8.995,1.56z"/><path fill="#fff" d="M20.724,20.317c-0.513,0.716-1.271,1.283-2.253,1.685c-0.972,0.398-2.138,0.601-3.464,0.601	c-1.593,0-2.929-0.276-3.97-0.821c-0.745-0.397-1.361-0.935-1.825-1.598C8.739,19.514,8.5,18.849,8.5,18.207	c0-0.4,0.156-0.748,0.462-1.033c0.305-0.281,0.694-0.423,1.158-0.423c0.381,0,0.71,0.112,0.977,0.334	c0.257,0.213,0.474,0.53,0.649,0.937c0.197,0.445,0.411,0.818,0.639,1.114c0.216,0.282,0.529,0.523,0.929,0.708	c0.402,0.188,0.943,0.283,1.611,0.283c0.917,0,1.668-0.192,2.232-0.572c0.552-0.371,0.821-0.819,0.821-1.365	c0-0.432-0.14-0.772-0.427-1.036c-0.303-0.279-0.703-0.496-1.184-0.644c-0.505-0.155-1.19-0.322-2.036-0.498	c-1.151-0.244-2.128-0.531-2.905-0.857c-0.797-0.334-1.437-0.796-1.906-1.374c-0.476-0.588-0.717-1.324-0.717-2.192	c0-0.827,0.253-1.572,0.754-2.213c0.494-0.636,1.22-1.134,2.152-1.474c0.919-0.336,2.014-0.505,3.252-0.505	c0.991,0,1.862,0.112,2.59,0.336c0.729,0.224,1.347,0.526,1.83,0.899c0.489,0.377,0.85,0.778,1.078,1.196	c0.23,0.421,0.347,0.841,0.347,1.246c0,0.391-0.152,0.746-0.455,1.056c-0.303,0.311-0.687,0.467-1.138,0.467	c-0.411,0-0.733-0.098-0.956-0.292c-0.207-0.181-0.423-0.464-0.662-0.869c-0.276-0.519-0.611-0.928-0.995-1.214	c-0.372-0.279-0.997-0.421-1.852-0.421c-0.795,0-1.441,0.156-1.92,0.467c-0.464,0.299-0.689,0.642-0.689,1.049	c0,0.249,0.073,0.457,0.221,0.636c0.159,0.188,0.381,0.356,0.662,0.494c0.292,0.144,0.591,0.26,0.892,0.341	c0.308,0.084,0.825,0.21,1.535,0.371c0.897,0.19,1.722,0.402,2.452,0.631c0.738,0.234,1.377,0.521,1.898,0.855	c0.529,0.341,0.95,0.779,1.25,1.301c0.299,0.525,0.449,1.173,0.449,1.927C21.499,18.777,21.239,19.598,20.724,20.317z"/></svg>